#!OML:ASF I:\Actors\actors\Patient Classification 2\Patient 1\Session 1\actor1.ASF
:FULLY-SPECIFIED
:DEGREES
1216
root -0.481228 18.5989 5.72301 1.80777 -4.30058 -5.29831
lowerback 10.9489 -0.154125 3.83156
upperback 3.10515 0.317055 3.12009
thorax -2.89363 0.140675 1.04441
lowerneck -16.1265 -1.27936 -0.836008
upperneck 20.4535 -2.01744 1.93778
head 9.11663 -0.796617 0.549759
rclavicle 1.14301e-014 -3.10104e-014
rhumerus -46.8013 -0.987802 -78.5462
rradius 48.6528
rwrist -0.593144
rhand -6.0675 -39.0839
rfingers 7.12502
rthumb 19.7675 -68.0987
lclavicle 1.14301e-014 -3.10104e-014
lhumerus -40.2345 1.10475 87.5195
lradius 49.1593
lwrist 3.33175
lhand -3.98447 -23.0654
lfingers 7.12502
lthumb 21.7689 5.73046
rfemur 6.12162 8.09408 18.828
rtibia -3.18055e-015
rfoot -16.8625 -13.8924
rtoes -15.9632
lfemur -8.95547 1.52745 -9.06881
ltibia 29.3441
lfoot -22.427 8.07669
ltoes -56.2766
1217
root -0.487893 18.603 5.72008 1.77511 -4.2952 -5.38873
lowerback 10.7428 -0.139428 3.92434
upperback 2.99473 0.338417 3.0908
thorax -2.89429 0.150474 0.958813
lowerneck -16.0641 -1.27867 -0.860692
upperneck 20.557 -2.01477 1.94663
head 9.14122 -0.796132 0.557619
rclavicle -6.75868e-015 2.70347e-014
rhumerus -46.3092 -0.865508 -78.9171
rradius 49.1952
rwrist -1.27014
rhand -6.43441 -39.1169
rfingers 7.12502
rthumb 19.4147 -68.1677
lclavicle -6.75868e-015 2.70347e-014
lhumerus -39.6495 1.19919 87.5615
lradius 49.494
lwrist 5.03618
lhand -5.53596 -24.9817
lfingers 7.12502
lthumb 20.2784 3.97968
rfemur 6.1568 8.09144 18.9624
rtibia 1.59028e-014
rfoot -16.819 -13.9024
rtoes -16.3437
lfemur -8.80458 1.44477 -8.94745
ltibia 29.1476
lfoot -22.3916 8.14759
ltoes -56.2492
1218
root -0.496774 18.6072 5.71696 1.76263 -4.29004 -5.3639
lowerback 10.4928 -0.109416 3.85413
upperback 2.89173 0.359023 3.04629
thorax -2.8641 0.160854 0.948848
lowerneck -15.9706 -1.29624 -0.902726
upperneck 20.5839 -2.0302 1.9508
head 9.13404 -0.80668 0.564603
rclavicle -1.41137e-014 1.35174e-014
rhumerus -45.8023 -0.671538 -79.3392
rradius 49.6786
rwrist -1.72816
rhand -6.78736 -39.0461
rfingers 7.12502
rthumb 19.0753 -68.1307
lclavicle -1.41137e-014 1.35174e-014
lhumerus -39.3173 0.89388 87.7506
lradius 50.5527
lwrist 6.46679
lhand -6.58926 -25.1946
lfingers 7.12502
lthumb 19.2658 3.87107
rfemur 6.16418 8.085 18.9704
rtibia 1.43125e-014
rfoot -16.8358 -13.8495
rtoes -16.0673
lfemur -8.71263 1.39398 -8.95019
ltibia 28.9869
lfoot -22.3319 8.1831
ltoes -56.2011
1219
root -0.505759 18.61 5.71307 1.72843 -4.30215 -5.26897
lowerback 10.2945 -0.050723 3.71699
upperback 2.78339 0.414199 2.99291
thorax -2.86786 0.188231 0.96313
lowerneck -15.8895 -1.37603 -1.01488
upperneck 20.6425 -2.13054 2.02332
head 9.1431 -0.854527 0.596037
rclavicle -2.36554e-014 3.57812e-014
rhumerus -45.3653 -0.370801 -79.7775
rradius 50.2426
rwrist -1.9922
rhand -6.11717 -39.4738
rfingers 7.12502
rthumb 19.7197 -68.4935
lclavicle -2.36554e-014 3.57812e-014
lhumerus -39.1538 0.317003 88.0574
lradius 52.1565
lwrist 7.43564
lhand -7.17363 -23.7253
lfingers 7.12502
lthumb 18.7038 5.39551
rfemur 6.18767 8.09429 18.8984
rtibia -1.74931e-014
rfoot -16.8721 -13.7861
rtoes -15.7135
lfemur -8.61063 1.38332 -9.03355
ltibia 28.839
lfoot -22.276 8.22566
ltoes -56.2392
1220
root -0.512429 18.6117 5.70931 1.65143 -4.29421 -5.2335
lowerback 10.1429 -0.013281 3.68299
upperback 2.70642 0.453762 2.95037
thorax -2.86393 0.207734 0.93303
lowerneck -15.927 -1.43442 -1.11028
upperneck 20.7532 -2.20379 2.0856
head 9.19149 -0.888361 0.62398
rclavicle -2.38542e-015 -5.96354e-015
rhumerus -44.8977 0.0250213 -80.2301
rradius 50.8323
rwrist -2.10123
rhand -4.43779 -40.4906
rfingers 7.12502
rthumb 21.3335 -69.3363
lclavicle -2.38542e-015 -5.96354e-015
lhumerus -38.7247 -0.0958799 88.308
lradius 53.0592
lwrist 8.28562
lhand -7.67018 -23.4719
lfingers 7.12502
lthumb 18.2262 5.69419
rfemur 6.26658 8.0863 18.8928
rtibia 1.59028e-015
rfoot -16.8977 -13.7662
rtoes -15.8197
lfemur -8.46222 1.39049 -9.05295
ltibia 28.6835
lfoot -22.2017 8.27302
ltoes -56.3345
1221
root -0.518559 18.6142 5.70736 1.57462 -4.26637 -5.19256
lowerback 9.96005 0.00622474 3.64729
upperback 2.64315 0.466976 2.90643
thorax -2.82866 0.214616 0.905786
lowerneck -15.9683 -1.41699 -1.10382
upperneck 20.8579 -2.16961 2.02725
head 9.234 -0.877425 0.607055
rclavicle -3.97569e-015 3.37934e-014
rhumerus -44.469 0.477053 -80.7145
rradius 51.3867
rwrist -2.17435
rhand -3.69203 -40.8005
rfingers 7.12502
rthumb 22.0497 -69.5634
lclavicle -3.97569e-015 3.37934e-014
lhumerus -38.3216 -0.548259 88.5426
lradius 53.8043
lwrist 9.06076
lhand -8.03257 -23.7296
lfingers 7.12502
lthumb 17.8775 5.46874
rfemur 6.35229 8.05839 18.8787
rtibia 1.74931e-014
rfoot -16.9321 -13.7568
rtoes -15.999
lfemur -8.3182 1.34076 -9.08142
ltibia 28.5276
lfoot -22.157 8.31921
ltoes -56.3428
1222
root -0.526915 18.6183 5.70557 1.54616 -4.22769 -5.11579
lowerback 9.78259 0.0365897 3.53802
upperback 2.512 0.491006 2.86057
thorax -2.86744 0.226017 0.916694
lowerneck -15.9092 -1.41512 -1.08576
upperneck 20.9938 -2.16426 1.98053
head 9.26938 -0.878312 0.589113
rclavicle -8.29926e-015 1.70955e-014
rhumerus -44.2424 0.897404 -81.1484
rradius 51.9143
rwrist -2.03476
rhand -4.11912 -39.9844
rfingers 7.12502
rthumb 21.6396 -68.7951
lclavicle -8.29926e-015 1.70955e-014
lhumerus -38.179 -1.10989 88.7823
lradius 54.6194
lwrist 9.48891
lhand -8.20878 -24.0459
lfingers 7.12502
lthumb 17.7079 5.16778
rfemur 6.38168 8.01763 18.8247
rtibia -1.11319e-014
rfoot -16.962 -13.7255
rtoes -15.9705
lfemur -8.22512 1.2326 -9.14431
ltibia 28.3789
lfoot -22.1679 8.38799
ltoes -56.3324
1223
root -0.536515 18.6217 5.70338 1.55357 -4.1814 -5.10008
lowerback 9.59115 0.067068 3.45539
upperback 2.36998 0.518743 2.84358
thorax -2.90963 0.239132 0.942351
lowerneck -15.9054 -1.44363 -1.12906
upperneck 21.175 -2.21131 2.04076
head 9.33383 -0.895931 0.611269
rclavicle -1.13804e-014 1.43125e-014
rhumerus -44.0685 1.39659 -81.5712
rradius 52.4404
rwrist -1.90531
rhand -5.76326 -38.003
rfingers 7.12502
rthumb 20.0599 -66.9874
lclavicle -1.13804e-014 1.43125e-014
lhumerus -38.084 -1.67051 89.0032
lradius 55.1742
lwrist 9.7366
lhand -8.17238 -24.9369
lfingers 7.12502
lthumb 17.743 4.27363
rfemur 6.37823 7.96991 18.8424
rtibia -2.8625e-014
rfoot -17.0103 -13.6826
rtoes -15.8555
lfemur -8.16773 1.10911 -9.13246
ltibia 28.2394
lfoot -22.1441 8.42495
ltoes -56.2991
1224
root -0.544628 18.6227 5.70392 1.52864 -4.16133 -5.14908
lowerback 9.34996 0.0860923 3.46672
upperback 2.29564 0.53467 2.83025
thorax -2.85299 0.247294 0.9206
lowerneck -15.9718 -1.44922 -1.0862
upperneck 21.319 -2.22357 1.99987
head 9.39561 -0.901396 0.588201
rclavicle -9.49197e-015 2.8625e-014
rhumerus -43.8253 2.07086 -82.142
rradius 52.9831
rwrist -2.28716
rhand -3.8118 -39.3557
rfingers 7.12502
rthumb 21.9347 -68.1322
lclavicle -9.49197e-015 2.8625e-014
lhumerus -37.9484 -2.27581 89.2175
lradius 55.5709
lwrist 10.257
lhand -8.01959 -26.1283
lfingers 7.12502
lthumb 17.89 3.06884
rfemur 6.42202 7.95085 18.9287
rtibia 1.27222e-014
rfoot -17.1123 -13.589
rtoes -15.4617
lfemur -8.06891 1.00012 -9.05657
ltibia 28.1168
lfoot -22.1318 8.45056
ltoes -56.2338
1225
root -0.551273 18.6238 5.70615 1.49772 -4.12697 -5.18112
lowerback 9.06604 0.0886392 3.47923
upperback 2.2533 0.524988 2.81864
thorax -2.73953 0.243528 0.90304
lowerneck -15.9493 -1.44097 -0.964349
upperneck 21.3013 -2.20112 1.82185
head 9.38116 -0.901353 0.509476
rclavicle 7.65321e-015 -1.94809e-014
rhumerus -43.5834 2.70861 -82.6972
rradius 53.468
rwrist -2.56134
rhand -3.40987 -39.6057
rfingers 7.12502
rthumb 22.3206 -68.3364
lclavicle 7.65321e-015 -1.94809e-014
lhumerus -37.7852 -2.82545 89.4563
lradius 55.9861
lwrist 10.6081
lhand -7.8305 -26.6155
lfingers 7.12502
lthumb 18.0719 2.56488
rfemur 6.47714 7.91735 18.9884
rtibia 1.59028e-014
rfoot -17.1972 -13.4736
rtoes -15.0654
lfemur -7.97582 0.890214 -9.00905
ltibia 28.0087
lfoot -22.1836 8.53151
ltoes -56.2341
1226
root -0.557825 18.6267 5.70754 1.48904 -4.06835 -5.19077
lowerback 8.81102 0.101406 3.46636
upperback 2.19133 0.529346 2.81488
thorax -2.66253 0.246378 0.90628
lowerneck -15.8415 -1.44848 -0.930261
upperneck 21.2123 -2.20559 1.76553
head 9.32906 -0.908248 0.484493
rclavicle -3.72721e-015 1.98785e-015
rhumerus -43.3893 3.19168 -83.1239
rradius 53.8386
rwrist -2.45541
rhand -3.35128 -38.8932
rfingers 7.12502
rthumb 22.3768 -67.6172
lclavicle -3.72721e-015 1.98785e-015
lhumerus -37.6727 -3.33051 89.7282
lradius 56.388
lwrist 10.5826
lhand -7.60317 -26.6167
lfingers 7.12502
lthumb 18.2906 2.54333
rfemur 6.50751 7.85851 19.0241
rtibia -6.36111e-015
rfoot -17.2378 -13.4243
rtoes -15.0273
lfemur -7.91745 0.785663 -8.98375
ltibia 27.9025
lfoot -22.1772 8.55505
ltoes -56.2022
1227
root -0.563516 18.6298 5.70989 1.45476 -4.01601 -5.18268
lowerback 8.74193 0.134928 3.50911
upperback 2.02348 0.58015 2.76688
thorax -2.79688 0.269004 0.827213
lowerneck -15.6966 -1.47535 -0.976709
upperneck 21.2661 -2.26557 1.90187
head 9.32419 -0.925351 0.532478
rclavicle 9.74045e-015 -1.66979e-014
rhumerus -43.425 3.55729 -83.5322
rradius 54.1575
rwrist -2.30794
rhand -3.32862 -38.0749
rfingers 7.12502
rthumb 22.3985 -66.7963
lclavicle 9.74045e-015 -1.66979e-014
lhumerus -37.7963 -3.8915 89.9903
lradius 56.7015
lwrist 10.4956
lhand -7.28697 -26.6315
lfingers 7.12502
lthumb 18.5948 2.49978
rfemur 6.56922 7.80608 19.0385
rtibia -1.59028e-015
rfoot -17.3062 -13.3811
rtoes -14.771
lfemur -7.82359 0.678802 -8.98051
ltibia 27.7967
lfoot -22.1276 8.52107
ltoes -56.116
1228
root -0.568365 18.6315 5.71381 1.39902 -3.94486 -5.13948
lowerback 8.67216 0.154187 3.51597
upperback 1.87306 0.607713 2.71358
thorax -2.91323 0.280458 0.765316
lowerneck -15.6681 -1.51237 -1.05594
upperneck 21.4076 -2.33482 2.04634
head 9.37232 -0.947146 0.586927
rclavicle -1.49089e-014 -2.5842e-014
rhumerus -43.5027 3.85308 -83.8801
rradius 54.4183
rwrist -2.00061
rhand -3.46362 -37.5694
rfingers 7.12502
rthumb 22.269 -66.3064
lclavicle -1.49089e-014 -2.5842e-014
lhumerus -37.973 -4.40083 90.239
lradius 56.9513
lwrist 10.4384
lhand -6.93448 -26.5465
lfingers 7.12502
lthumb 18.9338 2.55193
rfemur 6.65939 7.73466 19.0077
rtibia -1.59028e-015
rfoot -17.3834 -13.292
rtoes -14.321
lfemur -7.71521 0.521213 -9.02406
ltibia 27.697
lfoot -22.1376 8.58306
ltoes -56.1161
1229
root -0.573938 18.6318 5.71807 1.3559 -3.86125 -5.12951
lowerback 8.35011 0.141284 3.42205
upperback 1.89404 0.564652 2.74602
thorax -2.71437 0.262228 0.856996
lowerneck -15.7509 -1.52681 -1.14324
upperneck 21.4377 -2.34668 2.10571
head 9.40031 -0.952298 0.619974
rclavicle -1.44119e-015 -9.14409e-015
rhumerus -43.2687 4.22441 -84.1362
rradius 54.5026
rwrist -1.60726
rhand -3.74953 -37.0856
rfingers 7.12502
rthumb 21.9945 -65.8551
lclavicle -1.44119e-015 -9.14409e-015
lhumerus -37.9509 -4.66688 90.4841
lradius 57.1079
lwrist 10.3057
lhand -6.57993 -26.4719
lfingers 7.12502
lthumb 19.2748 2.59294
rfemur 6.74077 7.65134 19.0122
rtibia -4.77083e-015
rfoot -17.447 -13.1888
rtoes -14.017
lfemur -7.62923 0.380962 -9.02628
ltibia 27.6064
lfoot -22.1695 8.674
ltoes -56.166
1230
root -0.580164 18.6318 5.72209 1.32317 -3.78824 -5.16639
lowerback 8.03016 0.127805 3.34701
upperback 1.91615 0.523608 2.79967
thorax -2.51531 0.244652 0.959473
lowerneck -15.7818 -1.5203 -1.19647
upperneck 21.4046 -2.34363 2.19259
head 9.39627 -0.945453 0.658991
rclavicle 8.05078e-015 8.34896e-015
rhumerus -43.0244 4.61809 -84.4208
rradius 54.4827
rwrist -1.41566
rhand -3.80195 -36.7663
rfingers 7.12502
rthumb 21.9441 -65.5416
lclavicle 8.05078e-015 8.34896e-015
lhumerus -37.9567 -4.80247 90.7071
lradius 57.1431
lwrist 10.0851
lhand -6.21212 -26.4797
lfingers 7.12502
lthumb 19.6284 2.54941
rfemur 6.81562 7.5792 19.0737
rtibia -6.36111e-015
rfoot -17.511 -13.085
rtoes -13.7597
lfemur -7.55466 0.306201 -8.96712
ltibia 27.5267
lfoot -22.1395 8.6997
ltoes -56.1924
